<svg width="199.99999999999997" height="199.99999999999997" xmlns="http://www.w3.org/2000/svg" xmlns:svg="http://www.w3.org/2000/svg">
 <!-- Created with SVG-edit - http://svg-edit.googlecode.com/ -->
 <g>
  <title>Layer 1</title>
  <path fill="none" stroke="#AA5548" stroke-width="10" stroke-dasharray="null" stroke-linejoin="round" stroke-linecap="round" id="svg_26" d="m148.251954,144.882812c0.557404,-0.685654 1.11348,-1.326675 1.568481,-2.097076c0.378372,-0.640656 0.846771,-1.652374 1.127563,-2.385345c0.208923,-0.545364 0.639893,-1.814407 0.862946,-2.54158c0.238785,-0.778427 0.46315,-1.610321 0.563995,-2.045044c0.314636,-1.356308 0.463135,-2.311935 0.533676,-2.798721c0.143066,-0.987259 0.257919,-1.991455 0.353104,-3.003326c0.095078,-1.010635 0.132462,-1.514175 0.197754,-2.511475c0.032196,-0.491714 0.091766,-1.457153 0.132889,-2.846802c0.025986,-0.878067 0.034103,-1.714844 0.018982,-2.506897c-0.021011,-1.099976 -0.059235,-1.772293 -0.145279,-2.694885c-0.078262,-0.839188 -0.221832,-1.849716 -0.330063,-2.73996c-0.106812,-0.878555 -0.083191,-1.891273 -0.164948,-2.673851c-0.086731,-0.830086 -0.383728,-1.767509 -0.619003,-2.562256c-0.19783,-0.668236 -0.510559,-1.618019 -0.791016,-2.353271c-0.288818,-0.757164 -0.741135,-1.765282 -1.094238,-2.524658c-0.353104,-0.759377 -0.796082,-1.771881 -1.107422,-2.53125c-0.31134,-0.759377 -0.752411,-1.773392 -0.992249,-2.281502c-0.36618,-0.775764 -0.872269,-1.839622 -1.257614,-2.662453c-0.259567,-0.554237 -0.79953,-1.652985 -1.10025,-2.180252c-0.45282,-0.793938 -0.966843,-1.578239 -1.536102,-2.374733c-0.394714,-0.552269 -1.025848,-1.377487 -1.447388,-1.928391c-0.620468,-0.810883 -1.21698,-1.599945 -1.616211,-2.111488c-0.797119,-1.021355 -1.217697,-1.524422 -1.85878,-2.274902c-0.424194,-0.496574 -1.259094,-1.455132 -1.660294,-1.920006c-0.594513,-0.688866 -0.992798,-1.150368 -1.815109,-2.100311c-0.424591,-0.490486 -1.071411,-1.234108 -1.692566,-1.997993c-0.612793,-0.753593 -0.99678,-1.269714 -1.598068,-2.025002c-0.607727,-0.763382 -1.239426,-1.512352 -1.662598,-1.990829c-0.791992,-0.895508 -1.340607,-1.470116 -1.847824,-1.985764c-0.792877,-0.806068 -1.275543,-1.279327 -1.932175,-1.935562c-0.696304,-0.695885 -1.239288,-1.252411 -1.835587,-1.781578c-0.805336,-0.714676 -1.462212,-1.187363 -2.097557,-1.671471c-0.825966,-0.629349 -1.420906,-1.111877 -2.014877,-1.609451c-0.825218,-0.691292 -1.442688,-1.239609 -2.071411,-1.727577c-0.918999,-0.713264 -1.61216,-1.122963 -2.394135,-1.688766c-0.619873,-0.448517 -1.394394,-1.07058 -2.215691,-1.619156c-0.622406,-0.415733 -1.530167,-0.802841 -2.318573,-0.933983c-0.997223,-0.165878 -1.78006,-0.290939 -2.472504,-0.479141c-1.091248,-0.296593 -1.703743,-0.478104 -2.701004,-0.730423c-0.698532,-0.176735 -1.784447,-0.417274 -2.523018,-0.559464c-0.741814,-0.142815 -1.485565,-0.26899 -2.588417,-0.461052c-1.077499,-0.187645 -1.778862,-0.315498 -2.469551,-0.424881c-1.339806,-0.212181 -1.991585,-0.287827 -2.935936,-0.394402c-0.604324,-0.068199 -1.744873,-0.193222 -2.557404,-0.288139c-0.812531,-0.094925 -1.951958,-0.222054 -2.550659,-0.284767c-0.914474,-0.095787 -2.125282,-0.22477 -2.722359,-0.28334c-0.91835,-0.090088 -1.568863,-0.144646 -2.639511,-0.184471c-0.783882,-0.02916 -1.61261,-0.033966 -2.472717,-0.037018c-1.321777,-0.004684 -2.208145,-0.001419 -3.097038,-0.001419c-0.446182,0 -1.343613,-0.000313 -2.707169,0c-0.923485,0.000214 -1.389206,-0.001701 -2.326904,0.006592c-0.944084,0.008347 -1.417946,0.011734 -2.841011,0.063385c-0.948074,0.034409 -1.420319,0.066162 -2.36171,0.100456c-0.933441,0.034004 -2.314301,0.040161 -2.767921,0.029533c-0.895782,-0.020996 -1.773315,-0.067741 -2.631233,-0.083534c-1.243088,-0.022881 -2.046692,0.006645 -2.838799,0.061546c-0.793411,0.054993 -2.004524,0.186188 -2.841328,0.292831c-0.876072,0.111649 -1.33186,0.177994 -2.287354,0.326164c-0.503662,0.078102 -2.133121,0.354736 -2.71693,0.459366c-0.601242,0.107758 -1.84444,0.338295 -2.481468,0.459c-0.644207,0.12207 -1.292915,0.245735 -3.240105,0.62606c-0.645458,0.126068 -1.290058,0.253304 -1.935455,0.379692c-0.647228,0.126747 -1.952354,0.380692 -2.613094,0.506248c-1.342861,0.255173 -2.027874,0.379883 -2.71983,0.506676c-0.696964,0.127708 -1.397476,0.252625 -2.796188,0.517212c-0.695419,0.131546 -1.385818,0.260864 -2.735435,0.5476c-0.659058,0.140022 -1.30558,0.285461 -2.563313,0.588089c-0.614502,0.147858 -1.218384,0.300346 -2.401314,0.598221c-1.152569,0.290222 -1.718376,0.433098 -2.831255,0.703163c-0.545191,0.132301 -1.612942,0.385529 -2.134899,0.506248c-1.511847,0.349655 -1.998005,0.455597 -2.934034,0.664452c-0.879089,0.196152 -1.69178,0.366508 -2.744562,0.631233c-0.845152,0.212517 -1.518944,0.364044 -2.547966,0.762375c-0.843309,0.326447 -1.302374,1.012978 -1.842171,1.683182c-0.660004,0.819458 -1.048012,1.430252 -1.575649,2.335289c-0.356476,0.61145 -0.730995,1.268288 -1.227129,2.207932c-0.383067,0.725502 -0.750994,1.45919 -1.195647,2.422935c-0.322167,0.698273 -0.630585,1.417557 -1.057588,2.463272c-0.350932,0.859421 -0.59634,1.446747 -0.995255,2.626968c-0.187678,0.55526 -0.424537,1.366394 -0.583876,2.183624c-0.22115,1.134247 -0.309638,2.04731 -0.338291,2.670784c-0.057991,1.261826 -0.014706,1.901108 0.075463,2.878983c0.062763,0.680656 0.208672,1.758148 0.31493,2.515427c0.108446,0.772873 0.225524,1.544556 0.373569,2.671104c0.13775,1.048195 0.18327,1.706711 0.359438,2.607185c0.212523,1.086304 0.49404,1.810669 0.769922,2.512688c0.374582,0.953178 0.668945,1.703117 0.975374,2.496658c0.326566,0.845688 0.680279,1.745071 0.936985,2.368401c0.536749,1.303329 0.830853,1.973213 1.142437,2.654442c0.319435,0.698395 0.65695,1.411194 1.22945,2.491646c0.393951,0.743484 0.821306,1.487434 1.037285,1.863365c0.435194,0.7575 1.09869,1.895981 1.542217,2.648743c0.435907,0.73983 0.856398,1.46032 1.499079,2.452568c0.397938,0.61438 0.792067,1.186966 1.398306,1.977127c0.593952,0.774139 1.235401,1.522095 1.653696,2.030685c0.62171,0.75592 1.200605,1.51506 1.727421,2.27475c0.343878,0.49588 1.011324,1.477188 1.557669,2.169922c0.366699,0.464951 0.954046,1.153351 1.780207,2.100723c0.43166,0.494995 0.87505,1.008377 1.849501,2.050308c0.512421,0.547913 1.050304,1.093689 1.587093,1.647842c0.533081,0.550323 1.298756,1.362473 1.783371,1.884094c0.692547,0.745438 1.112999,1.239853 2.029957,2.029648c0.650402,0.560196 1.35075,1.036087 2.30386,1.662613c0.482365,0.317078 1.205765,0.771713 2.111904,1.354156c0.631016,0.405594 1.451336,0.937332 2.34605,1.431061c0.718857,0.396683 1.234924,0.645203 2.293945,1.208771c0.839439,0.446716 1.421444,0.769775 2.036179,1.096359c0.981026,0.521179 1.679581,0.878891 2.406322,1.23819c0.741997,0.366837 1.876156,0.902115 2.639301,1.238632c0.765762,0.337677 1.549263,0.662552 2.357861,0.9758c0.834152,0.323151 1.707386,0.635468 2.607609,0.949631c0.4566,0.159348 1.379894,0.472626 2.764126,0.949219c0.457588,0.157547 1.366196,0.475189 2.27417,0.791016c0.455681,0.158493 1.373993,0.480316 2.791595,0.949219c0.4842,0.160156 1.477318,0.476624 1.987457,0.632813c1.04689,0.320541 1.586258,0.480957 2.702637,0.791016c1.160027,0.322174 1.756317,0.474472 2.359123,0.626068c1.216171,0.305832 1.828407,0.448456 2.440125,0.585556c1.211037,0.271423 2.402176,0.507965 2.98893,0.617584c0.580589,0.108475 1.727539,0.307449 2.294792,0.396347c1.675323,0.262543 2.228607,0.333679 3.326538,0.477463c0.546333,0.071548 1.092239,0.139786 2.184891,0.269775c0.547699,0.065155 2.204811,0.255127 2.76223,0.317413c1.117409,0.124863 1.675713,0.184952 2.232559,0.242157c1.10463,0.113495 2.191734,0.215775 3.255188,0.300369c0.521919,0.041519 1.546989,0.113449 2.547073,0.166122c0.490318,0.025833 1.923752,0.078094 2.849075,0.097763c0.454391,0.009659 1.348503,0.01918 2.224602,0.043243c1.286919,0.035355 2.129684,0.084824 2.963829,0.131622c0.827835,0.046448 2.063087,0.11055 2.886314,0.13121c0.825493,0.020706 1.656281,0.024368 2.074303,0.025574c1.268623,0.003677 2.12841,0.001419 2.995789,0.001419c0.869904,0 1.737282,0 3.022682,0c0.422768,0 1.261032,0 2.091705,0c0.825615,0 2.060028,0.001846 2.882675,-0.001419c0.822662,-0.003281 1.645676,-0.005493 2.879295,-0.051315c0.821701,-0.030518 1.635803,-0.081207 2.4338,-0.151871c0.776497,-0.068756 1.881813,-0.205673 2.57444,-0.319733c0.99527,-0.163879 1.635086,-0.298416 2.901917,-0.551437c0.632843,-0.126404 1.582001,-0.316544 2.53125,-0.506256c0.950607,-0.189972 1.588226,-0.318451 2.558258,-0.506241c0.991745,-0.191986 1.665726,-0.308228 2.663284,-0.517639c0.647659,-0.135956 1.850952,-0.451447 2.404694,-0.632813c0.807449,-0.26445 1.871231,-0.657867 2.706757,-0.937836c0.576447,-0.193161 1.795258,-0.571762 2.439697,-0.759369c0.98999,-0.288208 1.655975,-0.467102 2.625748,-0.759384c0.925766,-0.279022 1.521164,-0.467224 2.382751,-0.786362c1.148209,-0.425308 1.723358,-0.678787 2.617996,-1.086395c0.962418,-0.438492 1.641312,-0.772263 2.346207,-1.124237c0.7211,-0.360077 1.443832,-0.727875 2.49028,-1.306183c0.678345,-0.374878 1.337982,-0.762375 1.990509,-1.157089c0.98996,-0.598831 1.65715,-1.019516 2.330811,-1.445404c0.672974,-0.425461 1.336319,-0.847733 2.599167,-1.673569c0.601883,-0.3936 1.1866,-0.782562 1.761749,-1.165649c1.14006,-0.759338 1.711121,-1.135605 2.267578,-1.530563c1.108002,-0.786423 1.640167,-1.205627 2.402893,-1.868591c0.507309,-0.440948 1.233414,-1.139954 1.925171,-1.87027c0.459381,-0.484985 0.895538,-0.985748 1.789856,-1.938202c0.436813,-0.465195 1.095566,-1.121033 1.888,-1.979126c0.551514,-0.597229 1.049469,-1.187134 1.6875,-1.951172c0.477173,-0.571411 0.967255,-1.156555 1.634766,-2.003906c0.540283,-0.685852 1.090256,-1.419617 1.466446,-1.920364c0.76004,-1.011688 1.147827,-1.518097 1.70816,-2.313461c0.579117,-0.822006 0.955963,-1.405167 1.512161,-2.311829c0.373016,-0.608047 0.90889,-1.519409 1.244797,-2.119232c0.497513,-0.888428 0.823792,-1.491348 1.240311,-2.462059c0.439453,-1.024147 0.68132,-1.757103 0.919159,-2.503883c0.360077,-1.130547 0.566971,-1.892334 0.76413,-2.650169c0.195129,-0.75 0.3759,-1.493202 0.60907,-2.590996c0.151337,-0.712502 0.345657,-1.751709 0.454056,-2.420456c0.155136,-0.9571 0.261627,-1.865005 0.39212,-2.722939c0.166092,-1.092056 0.34346,-1.872086 0.504562,-2.627594c0.20488,-0.960838 0.360779,-1.879318 0.459213,-2.550339c0.16304,-1.111473 0.260773,-1.805595 0.380112,-2.816437c0.099533,-0.84317 0.186234,-1.738411 0.22612,-2.347313c0.078659,-1.201019 0.085938,-2.088951 0.088867,-2.686661c0.006088,-1.244408 0.001419,-1.898438 0.001419,-2.903183c0,-0.674583 0.004257,-2.003136 -0.006744,-2.654442c-0.010956,-0.648949 -0.086182,-1.960716 -0.17424,-2.629967c-0.13588,-1.032623 -0.273544,-1.734291 -0.504562,-2.809685c-0.15773,-0.734207 -0.334747,-1.471558 -0.520172,-2.205986c-0.183334,-0.726112 -0.560715,-2.117302 -0.755997,-2.770874c-0.277084,-0.927345 -0.557846,-1.777573 -0.854294,-2.541534c-0.365387,-0.941612 -0.747787,-1.831505 -1.054276,-2.493965c-0.316849,-0.684875 -0.85228,-1.625557 -1.356323,-2.352798c-0.355072,-0.512314 -1.152237,-1.558266 -1.573166,-2.101784c-0.437103,-0.5644 -0.900497,-1.153053 -1.408646,-1.761749c-0.827118,-0.990776 -1.446884,-1.681068 -2.094559,-2.393135c-0.328995,-0.36171 -0.995972,-1.082672 -1.667725,-1.786377c-0.655548,-0.686729 -1.30455,-1.347351 -1.9478,-1.985771c-0.317184,-0.314804 -1.265015,-1.235298 -1.900543,-1.824188c-0.620087,-0.57457 -1.221115,-1.121925 -1.818695,-1.60228c-1.055481,-0.848427 -1.559631,-1.15836 -2.241852,-1.583771c-1.035629,-0.645775 -1.617538,-1.032879 -2.585251,-1.599697c-0.562851,-0.329678 -1.318573,-0.722858 -2.278122,-1.101517c-0.751816,-0.296688 -1.705994,-0.604935 -2.481155,-0.849655c-1.03801,-0.327698 -1.731827,-0.522785 -2.495712,-0.684704c-1.124466,-0.23835 -1.750992,-0.303238 -2.771133,-0.42931c-0.749435,-0.092617 -1.997543,-0.255486 -2.449402,-0.323315c-0.952789,-0.143028 -1.953644,-0.304676 -2.467712,-0.381798c-1.041916,-0.156311 -2.089249,-0.296906 -3.128204,-0.405418c-0.514816,-0.053768 -1.539139,-0.142075 -2.048615,-0.184784c-1.015427,-0.085125 -2.028671,-0.171757 -3.039612,-0.274639c-1.003937,-0.102169 -1.499481,-0.165058 -2.478256,-0.255497c-1.413788,-0.130634 -1.868668,-0.154213 -2.751312,-0.189846c-0.851746,-0.034386 -1.678955,-0.040653 -2.882248,-0.087486c-0.786209,-0.030602 -1.566605,-0.083706 -2.350266,-0.117702c-0.793335,-0.034416 -2.019455,-0.047855 -2.861572,-0.013447c-0.853119,0.034859 -1.706833,0.094952 -2.96199,0.236618c-0.811569,0.091599 -1.59938,0.207432 -2.365448,0.341721c-0.751038,0.131657 -1.84848,0.364407 -2.567223,0.54406c-0.724998,0.181213 -1.462173,0.38567 -2.608345,0.748985c-0.812012,0.257393 -1.65464,0.549984 -2.532516,0.850502c-0.450531,0.154228 -1.84407,0.627178 -2.322052,0.784264c-0.969681,0.318676 -1.954735,0.632881 -2.449776,0.791016c-0.990936,0.316544 -1.97744,0.631172 -2.951012,0.949219c-0.481789,0.157391 -1.432732,0.472164 -2.363297,0.791016c-0.458199,0.157001 -1.797134,0.629448 -2.659233,0.950642c-0.425354,0.158474 -1.266075,0.478016 -2.091972,0.816597c-1.238632,0.507782 -2.050972,0.872826 -2.451942,1.053421c-0.783768,0.353004 -1.531807,0.691544 -2.856514,1.334389c-0.58934,0.285988 -1.418953,0.705765 -2.212311,1.171127c-0.826576,0.484848 -1.371071,0.850372 -2.198814,1.387123c-0.810768,0.525742 -1.602562,1.02607 -2.111481,1.374466c-1.026917,0.703018 -1.529404,1.100266 -2.268318,1.727425c-0.488708,0.414795 -1.39772,1.246368 -2.022156,1.85894c-0.415672,0.407776 -1.262848,1.296425 -1.715759,1.791275c-0.728432,0.795883 -1.231934,1.364952 -2.023315,2.249443c-0.543663,0.607628 -1.098274,1.227165 -1.377686,1.54248c-0.565483,0.638145 -1.420448,1.618866 -1.986343,2.291939c-0.569832,0.677757 -1.129944,1.367088 -1.406166,1.714661c-0.825188,1.038338 -1.355324,1.735756 -1.870117,2.434898c-0.510345,0.6931 -1.006607,1.387581 -1.716507,2.436386c-0.234802,0.346901 -0.694443,1.043564 -1.131149,1.751572c-0.436607,0.707855 -1.058907,1.795403 -1.452148,2.540794c-0.398102,0.754608 -0.783401,1.53196 -1.346992,2.742348c-0.192307,0.413002 -0.568405,1.253784 -0.942627,2.096191c-0.368484,0.829483 -0.542358,1.238037 -1.075569,2.390762c-0.332558,0.718941 -0.671249,1.403023 -1.145447,2.420822c-0.481789,1.034088 -0.794731,1.75779 -1.114433,2.50531c-0.329834,0.771202 -0.494637,1.167694 -1.012657,2.391922c-0.357697,0.845345 -0.722137,1.707695 -0.902817,2.144707c-0.363449,0.879082 -0.888603,2.207787 -1.05764,2.652748c-0.340652,0.896721 -0.677925,1.815918 -0.851921,2.285515c-0.543922,1.46801 -0.736191,1.9804 -1.139061,3.031799c-0.205132,0.535332 -0.412636,1.073265 -0.835945,2.144814c-0.209496,0.530304 -0.830093,2.064735 -1.03196,2.552345c-0.390495,0.943237 -0.583279,1.398407 -0.95713,2.281815c-0.535603,1.26561 -0.878891,2.073929 -1.203716,2.853249c-0.309616,0.742836 -0.600639,1.444542 -0.985394,2.413704c-0.342537,0.862808 -0.638134,1.650955 -1.026054,2.614944c-0.277561,0.689743 -0.569572,1.341049 -0.953911,2.384964c-0.290501,0.789032 -0.53183,1.59848 -0.786373,2.435898c-0.251728,0.828156 -0.563313,1.765121 -0.885941,2.58905c-0.310436,0.792801 -0.63382,1.55542 -1.009125,2.390762c-0.421314,0.937744 -0.68206,1.617645 -1.09856,2.513535c-0.328079,0.705688 -0.735832,1.56076 -1.055954,2.400467c-0.331364,0.869202 -0.538509,1.597198 -0.949642,2.531784c-0.411922,0.936386 -0.752781,1.541733 -1.187576,2.414703l0.018299,0.738907"/>
 </g>
</svg>