<svg width="200" height="200" xmlns="http://www.w3.org/2000/svg" xmlns:svg="http://www.w3.org/2000/svg">
 <!-- Created with SVG-edit - http://svg-edit.googlecode.com/ -->
 <title>House</title>
 <g>
  <title>Layer 1</title>
  <path d="m47.75,193c0.833084,-0.176331 1.821369,-0.442978 2.541668,-0.5c1.124565,-0.08902 1.922424,-0.177322 2.510414,-0.260422c0.977551,-0.138153 2.07991,-0.292343 2.885918,-0.389572c0.853321,-0.102936 1.295815,-0.151718 2.206669,-0.25c1.415794,-0.152756 1.898354,-0.197403 2.873333,-0.305344c0.987701,-0.109344 1.486126,-0.159958 2.981998,-0.377991c0.500668,-0.072983 1.50071,-0.241394 2.5,-0.427094c0.500362,-0.092987 1.499973,-0.290375 2.5,-0.489578c0.997974,-0.198807 1.491928,-0.302673 2.46875,-0.479172c0.944271,-0.170609 1.400074,-0.262939 2.698917,-0.399414c0.792747,-0.083298 1.898731,-0.121475 2.587666,-0.16275c0.984764,-0.059006 1.937714,-0.173904 2.575333,-0.263992c1.33683,-0.188889 2.055573,-0.293671 2.810669,-0.400009c0.787575,-0.110916 1.604706,-0.2258 2.869415,-0.455322c0.869308,-0.157761 1.306732,-0.254669 2.19458,-0.426666c0.894829,-0.173355 2.244057,-0.404373 2.692673,-0.470001c0.8853,-0.129517 1.748245,-0.235413 2.573997,-0.34201c1.145767,-0.147903 2.152191,-0.298599 2.739998,-0.38266c1.144028,-0.163605 2.042671,-0.217667 2.948837,-0.218002c0.922501,-0.000336 1.744659,0.016296 2.639168,-0.000671c0.750381,-0.014236 1.789139,-0.267807 2.699997,-0.416c0.723289,-0.117676 1.729164,-0.083328 2.60067,-0.083328c0.909744,0 1.804665,0 2.610077,0c0.841507,0 1.73925,0 2.789253,0c0.75,0 1.649918,0 2.521416,0c0.96817,0 1.878586,0 2.778587,0c0.899994,0 1.804672,-0.091858 2.689331,0.000076c0.852966,0.088638 1.710747,0.471893 2.594002,0.499924c0.687233,0.021805 1.682152,0.088638 2.416664,0.260422c1.097527,0.256683 1.740234,0.537247 2.76075,0.678909c0.744972,0.103409 1.742798,0.124268 2.544586,0.278671c0.841568,0.162064 1.733978,0.399704 2.455078,0.521576c1.234665,0.208679 1.988037,0.222534 2.721588,0.273087c1.158737,0.079849 1.806015,0.202164 2.659996,0.388c0.900734,0.195999 1.846741,0.392929 2.774666,0.599335c0.872032,0.193985 1.507912,0.358002 2.625999,0.600006c0.716675,0.155121 1.458237,0.298859 2.456665,0.5c0.740417,0.149155 1.916931,0.40184 2.567581,0.547745c0.946503,0.21225 1.915131,0.28476 2.733093,0.354492c0.908249,0.077438 1.767136,0.549042 2.587326,0.779755c0.870377,0.244827 1.83197,0.113129 2.712585,0.328674c0.847183,0.207367 1.650085,0.389328 2.550079,0.389328c0.900009,0 1.813156,-0.079941 1.850006,-0.907166c0.039352,-0.883698 -0.075485,-1.760742 -0.218002,-2.644836c-0.127258,-0.789413 -0.286194,-1.697403 -0.431992,-2.729248c-0.102966,-0.72876 -0.195724,-1.468948 -0.350006,-2.552078c-0.097305,-0.683075 -0.252258,-1.666336 -0.350006,-2.319336c-0.204803,-1.36821 -0.299515,-2.107132 -0.410416,-2.878586c-0.115326,-0.802246 -0.320663,-2.05249 -0.400238,-2.47934c-0.161133,-0.864349 -0.342117,-1.728424 -0.513,-2.584488c-0.247025,-1.237457 -0.386383,-2.017792 -0.508347,-2.758255c-0.115219,-0.699585 -0.312241,-1.981018 -0.467987,-2.839508c-0.144669,-0.797485 -0.348679,-1.807434 -0.5,-2.554916c-0.148697,-0.734497 -0.350754,-1.668747 -0.550003,-2.544907c-0.150574,-0.662125 -0.402374,-1.892242 -0.5,-2.443329c-0.153748,-0.867859 -0.347488,-2.064621 -0.452255,-2.668503c-0.161728,-0.932205 -0.281693,-1.582718 -0.508499,-2.617004c-0.161621,-0.737061 -0.348099,-1.49971 -0.541504,-2.283005c-0.295334,-1.196091 -0.498657,-1.995926 -0.697739,-2.800827c-0.200943,-0.812439 -0.405151,-1.636124 -0.699921,-2.905426c-0.20134,-0.86702 -0.30127,-1.305893 -0.482086,-2.19458c-0.1819,-0.894012 -0.409698,-2.244049 -0.475327,-2.692657c-0.129517,-0.8853 -0.235428,-1.748245 -0.34201,-2.574005c-0.147919,-1.146011 -0.302292,-2.16774 -0.38266,-2.794006c-0.147461,-1.149094 -0.19899,-1.955185 -0.212662,-2.728653c-0.017776,-1.005203 -0.005341,-1.994675 -0.005341,-2.698181c0,-1.023163 0,-1.732491 0,-2.892494c0,-0.685501 0,-1.416 0,-2.415329c0,-1.017334 -0.002808,-2.08268 0.000671,-2.642006c0.005402,-0.867783 0.022247,-1.759796 0.141327,-2.958664c0.060623,-0.61042 0.19899,-1.55439 0.274673,-2.565331c0.053589,-0.715851 0.05983,-1.453773 0.109665,-2.552086c0.046814,-1.031761 0.147964,-1.941292 0.261002,-2.729248c0.12706,-0.885666 0.207443,-1.770706 0.212662,-2.708672c0.004623,-0.832565 0.244217,-1.685364 0.494659,-2.435997c0.288528,-0.864792 0.501953,-1.659302 0.906006,-2.349998c0.445618,-0.761772 0.736206,-1.591774 1.182663,-2.473999c0.342255,-0.676331 -0.208786,-1.029884 -0.901321,-1.388672c-0.803589,-0.416321 -1.609711,-0.776421 -2.440002,-1.052666c-0.889511,-0.295944 -1.753448,-0.499893 -2.542007,-0.683998c-0.91835,-0.214401 -1.710861,-0.42823 -2.680832,-0.460251c-0.763153,-0.025192 -1.645813,-0.198906 -2.449997,-0.321419c-1.107147,-0.168671 -1.830658,-0.160408 -2.569832,-0.21833c-1.001259,-0.078461 -1.996132,-0.27314 -2.999336,-0.374664c-0.745941,-0.075493 -1.48201,-0.075989 -2.639252,-0.08342c-0.642754,-0.004128 -1.463684,-0.017937 -2.460747,-0.176247c-0.803391,-0.127563 -1.800896,-0.26989 -2.599998,-0.336334c-1.001251,-0.083252 -1.78299,-0.279488 -2.716667,-0.403999c-0.829178,-0.11058 -1.844742,-0.062553 -2.604172,-0.09375c-1.064102,-0.043716 -1.758568,-0.175941 -2.502495,-0.276917c-1.058167,-0.143623 -1.907326,-0.192352 -2.800003,-0.207336c-0.619934,-0.010406 -1.919373,-0.002113 -2.594666,-0.010666c-0.687393,-0.008713 -2.082695,-0.07029 -2.782669,-0.137337c-0.705452,-0.067566 -1.777779,-0.210632 -2.882668,-0.35733c-0.758575,-0.100716 -1.529358,-0.199745 -2.304001,-0.300003c-0.770691,-0.099747 -1.902092,-0.249863 -2.63858,-0.349998c-0.734512,-0.099861 -1.478432,-0.204445 -2.640747,-0.349998c-0.818283,-0.10247 -1.668701,-0.201286 -2.544006,-0.281998c-0.890068,-0.082069 -2.239334,-0.159363 -2.689995,-0.176003c-0.904533,-0.033401 -1.817535,-0.049026 -2.742004,-0.084c-0.940903,-0.035599 -1.899048,-0.095894 -2.864662,-0.176003c-0.48246,-0.040024 -1.438179,-0.130318 -2.826004,-0.281998c-0.445221,-0.04866 -1.306877,-0.151176 -2.135414,-0.239586c-0.797821,-0.085129 -1.94754,-0.184723 -3.045914,-0.234077c-0.693474,-0.031166 -1.351067,-0.011642 -2.503166,-0.137001c-0.965683,-0.105072 -1.619675,-0.285355 -2.758507,-0.360756c-0.709824,-0.046997 -1.863083,-0.02858 -2.516331,-0.02858c-0.891998,0 -1.892666,0 -2.728165,0c-0.880501,0 -1.779251,0 -2.684502,0c-0.612667,0 -1.877998,0 -2.536667,0c-1.007999,0 -1.681667,0 -2.997082,0c-0.627834,0 -1.519585,0 -2.59425,0c-0.71175,0 -1.590763,0.00473 -2.477501,-0.000084c-0.960041,-0.005211 -1.734238,-0.024948 -2.831833,-0.141914c-0.576393,-0.061424 -1.457172,-0.210213 -2.657001,-0.297249c-0.877731,-0.063667 -1.685997,-0.059624 -2.557331,-0.060753c-0.834003,-0.001076 -1.814434,-0.00544 -2.743668,0c-0.888962,0.005211 -1.399334,0.550003 -1.399334,1.400002c0,0.917999 -0.002491,1.727386 0.176334,2.578583c0.215736,1.026894 0.318455,1.77137 0.323666,2.671417c0.005207,0.899986 0,1.799995 0,2.549995c0,1.060417 0,1.883339 0,2.831253c0,0.654747 0,1.652748 0,2.46875c0,0.816002 0,2.045082 0,2.707336c0,1.103416 0,1.810661 0,2.544914c0,1.247749 0,1.997749 0,2.747749c0,1.000664 0,1.760414 0,2.542664c0,1.099335 0.000259,1.957336 0,2.815338c-0.000336,1.100662 0.005001,1.90316 -0.042667,2.726662c-0.051395,0.887871 -0.174946,1.845459 -0.244667,2.508003c-0.139221,1.322998 -0.179733,1.963707 -0.202248,2.886497c-0.014393,0.589882 -0.010418,1.710167 -0.010418,2.508171c0,0.789001 0.008793,1.873444 -0.005333,2.725327c-0.014278,0.861206 -0.097626,1.977539 -0.207333,2.764008c-0.103722,0.743546 -0.257523,1.880142 -0.276917,2.512909c-0.030952,1.009995 0.014797,1.817673 -0.053085,2.653091c-0.09227,1.135529 -0.282772,1.821884 -0.396584,2.88591c-0.075809,0.70874 -0.038441,1.732819 -0.071167,2.481842c-0.043316,0.991318 -0.22821,1.790817 -0.347584,2.632248c-0.127094,0.895844 -0.139332,1.84465 -0.141998,2.774002c-0.002483,0.865326 0,1.682663 0,2.683334c0,0.799988 -0.000034,1.799988 0,2.599991c0.000042,1.000092 -0.010551,1.811844 0.042667,2.442673c0.095963,1.137482 0.282322,1.840317 0.396584,2.996658c0.063862,0.646271 0.060413,1.50267 0.060749,2.637009c0.00021,0.710999 0,1.640335 0,2.500336c0,0.779999 -0.062668,1.81424 0.110668,2.873413c0.127262,0.777634 0.353493,1.609421 0.383999,2.537247c0.029636,0.901367 -0.020813,1.698257 0.181667,2.586334c0.216358,0.948944 0.306435,1.787003 0.5,2.671829c0.196564,0.898544 0.323666,1.797165 0.323666,2.654419l0,0.889328l0,0.860764l0,0.899994" id="svg_17" stroke-linecap="round" stroke-linejoin="round" stroke-dasharray="null" stroke-width="10" stroke="#000000" fill="none"/>
  <path d="m49.25,83c0.026333,-0.380836 0.334095,-1.163406 0.7715,-1.932335c0.358601,-0.630394 0.793686,-1.347153 1.378582,-2.428581c0.307823,-0.569145 0.612225,-1.16938 1.092587,-2.125084c0.520042,-1.034645 0.888947,-1.773155 1.257332,-2.555664c0.190063,-0.403725 0.577602,-1.237366 1.089333,-2.579666c0.175423,-0.460152 0.497623,-1.404129 0.660667,-1.87867c0.325577,-0.947594 0.82814,-2.335442 1.010834,-2.778664c0.359821,-0.872932 0.757755,-1.722412 0.962502,-2.146667c0.415459,-0.860874 1.087414,-2.196167 1.319332,-2.660004c0.475334,-0.950665 0.717751,-1.435497 1.209583,-2.419167c0.248417,-0.496834 0.997349,-1.995533 1.247749,-2.494164c0.249599,-0.497036 0.748035,-1.481522 1,-1.965336c0.496143,-0.952682 0.994499,-1.872471 1.499332,-2.750668c0.490009,-0.852413 0.744228,-1.262165 1.222088,-2.080833c0.701088,-1.201103 0.919762,-1.603413 1.352249,-2.402248c0.428162,-0.790844 0.837158,-1.582699 1.509666,-2.718918c0.222336,-0.375637 0.689484,-1.10865 1.177078,-1.822914c0.486122,-0.712105 1.239967,-1.760143 1.738922,-2.459751c0.495712,-0.695065 0.983444,-1.382122 1.222084,-1.722084c0.697517,-0.99366 1.346573,-1.94252 1.74733,-2.536915c0.372841,-0.552994 1.003639,-1.513695 1.520836,-2.270836c0.586761,-0.858978 0.973717,-1.409149 1.562668,-2.144499c0.582794,-0.727665 1.184708,-1.358089 1.86441,-2.042999c0.5811,-0.585558 1.294167,-1.294165 1.854172,-1.854168c0.472496,-0.472498 1.171829,-1.171835 1.739578,-1.739582c0.590256,-0.590252 1.389587,-1.389584 1.989586,-1.989584c0.599998,-0.6 1.204544,-1.195446 1.79467,-1.799999c0.581337,-0.595549 1.297981,-1.397116 1.787331,-1.994667c0.621674,-0.759132 1.209572,-1.470709 1.818001,-2.1c0.739799,-0.765165 1.193626,-1.20104 1.757332,-1.762667c0.723343,-0.720671 1.480133,-1.2667 2.259331,-1.759334c0.73436,-0.464286 1.569305,-0.560473 2.21067,-0.182667c0.755135,0.444826 1.525352,0.848571 2.214668,1.400001c0.631775,0.5054 1.375824,0.974737 2.107994,1.503834c0.768867,0.555616 1.353912,1.176876 1.950005,1.888166c0.603973,0.720688 1.178177,1.407455 1.799995,1.963999c0.723434,0.647495 1.376511,1.053633 1.958,1.828001c0.505249,0.672838 1.036751,1.618256 1.459999,2.097334c0.562035,0.636177 1.332047,1.367956 1.932007,1.967999c0.600044,0.600124 1.236679,1.191359 1.949997,2.116667c0.477585,0.61952 0.741005,1.107563 1.242668,1.792c0.67379,0.919277 1.280113,1.533529 1.815331,2.226c0.555511,0.718723 1.031929,1.547089 1.33667,2.125999c0.621628,1.180901 0.905327,1.789333 1.20533,2.389336c0.449997,0.900002 0.898849,1.800575 1.200668,2.400665c0.458008,0.910629 0.772217,1.530949 1.282669,2.482666c0.354057,0.66013 0.911873,1.653233 1.261749,2.311752c0.496262,0.934036 0.896935,1.796928 1.144501,2.323666c0.347458,0.739281 0.850655,1.639732 1.397751,2.475918c0.527634,0.806442 0.89357,1.400345 1.31041,2.205334c0.514709,0.993984 0.781403,1.618576 1.38559,2.599998c0.378296,0.614491 0.835045,1.221798 1.5,2.083332c0.539001,0.698353 0.927528,1.169022 1.474663,1.917336c0.542221,0.741585 1.029999,1.504242 1.518341,2.277916c0.50769,0.80431 1.043808,1.647442 1.42366,2.200584c0.549133,0.79966 1.085358,1.49168 1.71875,2.229168c0.611008,0.711418 1.083099,1.425148 1.525253,2.277664c0.283737,0.547081 0.91481,1.60289 1.241333,2.056664c0.523056,0.726868 1.11734,1.456932 1.714584,2.207336c0.596085,0.74894 0.999329,1.237556 1.716751,2.25c0.349167,0.492752 0.801407,1.244087 1.282669,1.914665c0.717087,0.999161 1.189743,1.449753 1.957993,2.243332c0.545486,0.563477 1.144562,1.32309 1.571243,1.922836c0.612915,0.861526 1.028183,1.414291 1.688095,2.335831c0.470169,0.656563 0.850006,1.268547 1.572906,2.0625c0.605484,0.664993 1.518799,0.942886 1.968414,1.664169c0.433167,0.694893 0.822372,1.525703 1.300003,2.15667c0.56636,0.748184 0.884003,1.657997 1.492004,2.199997l0.608002,0.542" id="svg_19" stroke-linecap="round" stroke-linejoin="round" stroke-dasharray="null" stroke-width="10" stroke="#ff0000" fill="none"/>
  <path d="m129.75,52.5c0,-0.878582 0.015228,-1.759586 -0.002243,-2.654915c-0.014069,-0.721344 -0.211853,-1.761276 -0.355759,-2.587086c-0.154205,-0.884937 -0.140869,-1.717411 -0.141998,-2.679501c-0.000946,-0.814499 0.002121,-1.683002 -0.000076,-2.878414c-0.001099,-0.597839 0.016251,-1.484573 -0.083252,-2.616753c-0.070953,-0.807255 -0.219513,-1.578484 -0.416672,-2.583332c-0.145905,-0.743614 -0.364197,-1.658871 -0.457336,-2.572666c-0.077988,-0.765182 -0.042664,-1.68775 -0.042664,-2.726667c0,-0.722082 -0.013992,-1.690359 0,-2.595333c0.014297,-0.924831 0.613541,-0.693558 1.42334,-0.6c0.924149,0.106768 1.661179,0.366791 2.519989,0.736668c0.783447,0.337423 1.633102,0.700266 2.574677,0.939999c0.729446,0.185722 1.732285,0.36622 2.476654,0.518002c0.727112,0.148262 1.864914,0.388475 2.682007,0.599998c0.916016,0.237129 1.71669,0.504 2.623993,0.800001c0.77681,0.253429 1.641006,0.503885 2.404678,0.699999c0.99321,0.255058 1.790894,0.398151 2.773163,0.75c0.731705,0.262093 1.542358,0.602276 2.369247,0.94775c0.683167,0.285423 0.657883,1.246269 0.652252,2.168919c-0.005219,0.85421 -0.078247,1.834164 -0.212662,2.638664c-0.140045,0.838234 -0.241074,1.736935 -0.287338,2.444668c-0.076309,1.167149 -0.164398,1.824524 -0.352249,2.647751c-0.229797,1.007019 -0.474991,1.81469 -0.587006,2.912998c-0.071899,0.704887 -0.054443,1.441521 -0.060822,2.439167c-0.006317,0.9897 -0.010971,1.711666 -0.176254,2.821499c-0.093246,0.626156 -0.284302,1.62743 -0.313248,2.418167c-0.040237,1.099064 0.01207,1.928501 -0.121262,2.771336c-0.12294,0.777107 -0.470932,1.906231 -0.7155,2.694c-0.172562,0.555843 -0.450623,1.398754 -0.730988,2.501747c-0.195541,0.769249 -0.332932,1.502079 -0.592667,2.614754c-0.193268,0.827934 -0.422104,1.623489 -0.589584,2.418167c-0.230469,1.093552 -0.273087,1.887077 -0.436752,2.779579l-0.29509,0.852249" id="svg_20" stroke-linecap="round" stroke-linejoin="round" stroke-dasharray="null" stroke-width="5" stroke="#ff0000" fill="none"/>
  <path d="m116.25,180c-0.000664,-0.887329 -0.014015,-1.641861 -0.141998,-2.72934c-0.096985,-0.824112 -0.201927,-1.432892 -0.274666,-2.437332c-0.079041,-1.09137 -0.078232,-1.864761 -0.109673,-2.666412c-0.049042,-1.25058 -0.080933,-1.677933 -0.149994,-2.545502c-0.070221,-0.882111 -0.159973,-1.772858 -0.240334,-3.121414c-0.026802,-0.449768 -0.059753,-1.349915 -0.072922,-2.25c-0.013161,-0.899933 -0.010414,-2.25 -0.010414,-2.699753c0,-0.893494 0,-1.768997 0,-2.614502c0,-1.185745 0,-1.905746 0,-2.873245c0,-0.832504 0,-1.733841 0,-2.577164c0,-0.964508 0,-1.959 0,-2.785339c0,-0.899994 -0.144798,-1.814087 0.010414,-2.699997c0.145226,-0.828903 0.489586,-1.649994 0.489586,-2.583328c0,-0.905914 0.000038,-1.716675 0,-2.616669c-0.000046,-0.960754 -0.152946,-1.779404 -0.358002,-2.600006c-0.213951,-0.856216 -0.078102,-1.789627 -0.184662,-2.543335c-0.130196,-0.920914 -0.915817,-1.929794 -0.455086,-2.775833c0.359367,-0.659897 1.547752,-0.380829 2.376335,-0.380829c0.823662,0 1.721413,0 2.611,0c1.010414,0 1.836746,0 2.75,0c0.921082,0 1.749664,0 2.660416,0c0.900002,0 1.831444,-0.143738 2.650002,0.110672c0.804611,0.250076 1.58168,0.599808 2.304916,0.860748c0.885056,0.319321 1.694138,0.484573 2.557755,0.52858c0.905777,0.046158 1.669815,0.173279 2.444656,0.542664c0.756439,0.360611 0.595169,1.543076 0.660675,2.362671c0.072006,0.901001 0.341675,1.668411 0.439987,2.537338c0.108154,0.955917 0.190475,1.956879 0.292007,2.567749c0.178024,1.071075 0.208893,1.769073 0.276337,2.741821c0.06926,0.998917 0.184906,1.748993 0.325912,2.497757c0.188629,1.001663 0.406006,1.986755 0.505081,2.707336c0.123337,0.897095 0.139999,1.73732 0.14267,2.742661c0.002121,0.800003 0,1.800003 0,2.594666c0,1.122009 0,1.944916 0,2.855331c0,0.75 0,1.650665 0,2.592667c0,0.883667 0,1.631012 0,2.681c0,0.818344 0.071762,1.706879 -0.042664,2.591675c-0.126434,0.977737 -0.42717,1.786957 -0.457413,2.695328c-0.027069,0.813049 -0.28537,1.667221 -0.439255,2.610748c-0.140747,0.862946 -0.140396,1.77597 -0.365997,2.573257c-0.25882,0.914688 -0.623138,1.711899 -0.694672,2.655334c-0.06427,0.847565 0,1.75 0.176331,2.599991l0.323669,0.850006" id="svg_22" stroke-linecap="round" stroke-linejoin="round" stroke-dasharray="null" stroke-width="5" stroke="#000000" fill="none"/>
  <path d="m64.25,114.5c0.47142,0.678581 0.576164,1.586555 0.900665,2.300667c0.373123,0.821114 0.516151,1.685631 0.682671,2.699333c0.124535,0.758133 0.381691,1.648544 0.411331,2.400002c0.041382,1.049194 0.005333,1.799995 0.005333,2.699997c0,1.050003 0,1.800003 0,2.699333c0,0.858002 0,1.869843 0,2.750671c0,0.849991 -0.001068,1.75 0,2.649994c0.001129,0.947754 0.698494,1.088318 1.5,1.383331c0.848152,0.31218 1.59446,0.665649 2.400002,0.916672c0.797699,0.248566 1.599998,0.5 2.449997,0.5c0.900002,0 1.800003,0 2.700005,0c0.849998,0 1.710411,0 2.623665,0c0.926331,0 1.826332,0 2.676331,0c0.900002,0 1.800003,0 2.700005,0c0.849998,0 1.75,-0.000336 2.649994,0c0.899338,0.000336 1.653755,0.517609 1.800003,-0.25c0.169289,-0.888519 0,-1.754913 0,-2.666672c0,-0.809662 0,-1.695999 0,-2.622574c0,-0.960754 0.048515,-1.762115 0,-2.632172c-0.05542,-0.993874 -0.460899,-1.742188 -0.5,-2.628586c-0.039902,-0.904465 0.35598,-1.689209 0.482002,-2.594666c0.124092,-0.891586 -0.004761,-1.805618 0.017998,-2.70533c0.021339,-0.843475 0.42878,-1.649605 0.5,-2.552254c0.066681,-0.845123 0,-1.747078 0,-2.647751c0,-0.899994 0.168983,-1.975487 -0.5,-2.449997c-0.652893,-0.463097 -1.607162,-0.26104 -2.5,-0.5c-0.803955,-0.215172 -1.714363,-0.195625 -2.552246,-0.27858c-0.903191,-0.089424 -1.874176,-0.332916 -2.6455,-0.497757c-0.918503,-0.196289 -1.702118,-0.464661 -2.60675,-0.473663c-1.016785,-0.010117 -1.695503,0 -2.67392,0c-0.938248,0 -1.823067,-0.0504 -2.682335,0.000084c-0.944199,0.055473 -1.667351,0.442009 -2.451912,0.69458c-0.912247,0.293671 -1.887337,0.388672 -2.644669,0.663338l-0.89267,0.318329l-0.75,0.323006" id="svg_23" stroke-linecap="round" stroke-linejoin="round" stroke-dasharray="null" stroke-width="5" stroke="#000000" fill="none"/>
 </g>
</svg>